PathFileType	4	(X/Y/Z)	c:/Users/goper/Files/vsCode/490R/osim_files/C12/C12_SSWS_04.trc
DataRate	CameraRate	NumFrames	NumMarkers	Units                	OrigDataRate	OrigDataStartFrame	OrigNumFrames
120.00	120.00	7	36	mm	120.0	609	1216
                Frame#	Time	LPSIS			LASIS			LTH1			LTH2			LTH3			LTH4			LLFE			LMFE			LSH1			LSH2			LSH3			LSH4			LLMAL			LMMAL			LCAL			LMTP5			LTOE			LMTP1			RPSIS			RASIS			RTH1			RTH2			RTH3			RTH4			RLFE			RMFE			RSH1			RSH2			RSH3			RSH4			RLMAL			RMMAL			RCAL			RMTP1			RTOE			RMTP5		
		X1	Y1	Z1	X2	Y2	Z2	X3	Y3	Z3	X4	Y4	Z4	X5	Y5	Z5	X6	Y6	Z6	X7	Y7	Z7	X8	Y8	Z8	X9	Y9	Z9	X10	Y10	Z10	X11	Y11	Z11	X12	Y12	Z12	X13	Y13	Z13	X14	Y14	Z14	X15	Y15	Z15	X16	Y16	Z16	X17	Y17	Z17	X18	Y18	Z18	X19	Y19	Z19	X20	Y20	Z20	X21	Y21	Z21	X22	Y22	Z22	X23	Y23	Z23	X24	Y24	Z24	X25	Y25	Z25	X26	Y26	Z26	X27	Y27	Z27	X28	Y28	Z28	X29	Y29	Z29	X30	Y30	Z30	X31	Y31	Z31	X32	Y32	Z32	X33	Y33	Z33	X34	Y34	Z34	X35	Y35	Z35	X36	Y36	Z36

609	5.06667	-443.84579	1066.11975	369.50684	-622.57196	1025.80457	421.23831	-570.92902	740.09827	466.42975	-581.37372	698.51147	460.40851	-630.41956	755.05341	467.45654	-634.75732	710.71918	461.60007	-650.09167	534.80573	405.27393	-639.51111	534.44519	280.20944	-589.62439	436.21048	421.79047	-591.74554	388.06818	426.13065	-650.02734	432.19446	412.48447	-642.21881	385.38675	415.65924	-595.65491	97.47762	367.53204	-602.41748	105.40662	289.81677	-524.86206	76.81472	331.97940	-728.72089	40.30838	385.63770	-776.09003	71.73895	313.47882	-742.30566	41.97212	273.46365	-428.28897	1058.27161	255.06885	-606.49152	1023.74646	166.78026	-523.43536	734.61334	103.80911	-534.42657	690.08453	104.74736	-585.32269	741.45581	98.41525	-586.88470	694.23364	98.50822	-558.74750	514.77246	117.82908	-590.42987	503.38577	251.64767	-492.06592	442.85843	107.68944	-452.42126	425.65164	104.90148	-458.66272	495.96103	113.63274	-424.95648	469.21921	110.54549	-206.90643	284.75168	174.61267	-238.88264	269.33606	252.85925	-159.65999	334.98840	227.79756	-210.41556	126.36010	257.17065	-237.87236	95.29335	219.70184	-187.24806	118.28677	154.74112
610	5.07500	-454.62305	1068.52808	369.83987	-633.01367	1027.33655	421.44180	-578.11316	741.15973	466.29138	-588.23523	699.76282	460.25204	-637.44385	755.47253	467.68515	-641.06042	711.17291	461.77988	-653.60065	534.92706	405.44446	-642.01019	535.24365	280.93530	-592.55151	436.76166	422.09061	-594.28583	388.64090	426.34402	-652.89392	432.37430	412.47815	-644.75317	385.56104	415.69101	-595.50732	98.47163	367.99966	-602.69873	105.75991	289.92358	-528.18146	75.70901	332.34393	-728.77753	40.28191	385.66306	-776.22998	71.51801	313.51315	-742.46027	41.92577	273.43506	-439.03104	1060.93860	255.59467	-617.37195	1026.71899	166.93665	-539.02509	737.25812	102.81047	-551.54376	692.69861	103.69518	-601.40417	745.41119	97.57741	-603.97546	698.29602	97.26198	-579.75519	519.00348	116.33430	-612.35992	507.46249	250.67018	-514.81696	446.70346	106.64439	-475.18866	428.65741	103.94097	-480.82941	498.94882	112.88368	-447.33508	471.98636	109.93575	-231.64749	284.30783	174.43185	-264.24915	269.23721	252.38991	-182.25111	332.33032	228.31490	-241.24875	125.21195	255.07240	-269.67126	95.87636	217.16496	-218.19949	117.75793	152.55554
611	5.08333	-465.46576	1070.87561	370.03799	-643.29138	1028.64600	421.60757	-585.04803	742.07281	466.08417	-594.04950	700.78766	460.02734	-643.85675	755.78394	467.97427	-647.11652	711.52332	461.99399	-656.72906	535.07330	405.53735	-646.76550	535.52704	281.01773	-595.39948	437.28897	422.28479	-596.81250	389.13510	426.51740	-655.71808	432.47574	412.26065	-647.30444	385.77542	415.53763	-595.78296	98.99847	367.94739	-602.88947	106.08958	290.02283	-530.12134	74.86482	330.53757	-728.86316	40.24166	385.67136	-776.39551	71.27236	313.50751	-742.55005	41.87131	273.41422	-449.85632	1063.60498	255.85078	-627.98157	1029.35925	167.22902	-555.27405	739.55231	101.85049	-568.95111	695.34949	102.40438	-617.23572	749.46222	96.57399	-621.06470	702.31262	96.40801	-601.75421	521.91071	115.13568	-634.84009	511.61978	249.73985	-537.17230	449.96973	105.83961	-498.24988	431.82098	102.60011	-502.73563	501.82904	112.21829	-469.60434	474.42566	109.50357	-257.32657	283.14758	173.67033	-290.01443	268.23154	251.80635	-205.64639	328.32028	228.67795	-273.00360	123.41191	252.32150	-302.02795	95.77938	214.36391	-249.54468	116.48095	150.25513
612	5.09167	-476.13135	1073.12036	370.08887	-653.67505	1029.82104	421.83508	-589.11926	744.99969	465.45099	-599.89032	701.66486	459.69498	-649.97668	755.65973	468.17664	-653.00879	711.76276	462.12836	-659.69727	535.09503	405.61319	-650.04694	535.86505	281.21811	-598.15619	437.75424	422.33591	-599.43347	389.57892	426.46857	-658.42383	432.58145	411.99780	-649.62817	385.90704	415.28857	-596.50012	98.90586	367.27264	-603.13147	106.39207	290.05081	-530.55487	75.30254	330.47617	-728.93103	40.16890	385.67435	-776.71143	71.00787	313.44406	-742.69604	41.75125	273.39011	-460.68829	1066.18359	256.10812	-638.62982	1032.01379	167.38121	-570.89886	742.42627	101.00948	-586.21759	698.10382	101.31071	-633.14587	753.43719	95.66860	-638.12646	706.40918	95.35979	-623.43896	525.08063	113.42635	-656.88275	515.78735	248.93906	-559.45679	453.15625	104.86279	-520.48547	434.40369	102.00539	-523.95221	504.66931	112.20631	-491.62946	476.50375	108.95496	-281.73672	281.09167	174.08290	-316.26108	266.42322	251.10764	-229.20343	323.31287	229.17010	-304.91193	121.11042	249.80322	-335.18222	95.21239	211.48155	-281.55054	114.49674	147.83107
613	5.10000	-486.67273	1075.31384	370.03409	-663.87604	1030.90857	421.94604	-595.12445	746.16309	465.05560	-605.50391	702.53943	459.36700	-656.48547	755.92188	468.31674	-658.64594	711.82648	462.22415	-662.51520	535.27728	405.59119	-653.87225	536.10388	281.03824	-600.66418	438.16864	422.18820	-601.65466	389.99707	426.28458	-660.89789	432.59750	411.64154	-651.88379	386.00790	414.92371	-596.86816	99.35513	367.15073	-603.41345	106.66403	290.01379	-531.43994	75.62082	330.28824	-729.02271	40.15290	385.66705	-776.96405	70.71529	313.39032	-742.86920	41.67949	273.33270	-471.37204	1068.85693	256.19299	-649.22675	1034.35266	167.61049	-586.92407	745.12750	99.97968	-603.34717	701.12189	100.11363	-648.95001	757.34381	94.78692	-655.28461	710.52655	94.18174	-644.36255	528.71124	112.55162	-678.04364	520.43982	248.05589	-581.72784	456.14377	104.05704	-543.01428	436.77246	101.29589	-544.99884	506.94080	111.88878	-513.08936	478.19803	108.89188	-307.34204	277.84116	173.69321	-342.82104	263.75092	250.30850	-253.12386	317.23325	229.53815	-337.70932	118.36657	247.37170	-368.88098	94.09802	208.43475	-314.12122	112.11811	145.33565
614	5.10833	-497.37256	1077.41418	369.90961	-674.22485	1031.88770	422.06558	-601.06213	747.29462	464.62643	-610.52539	703.82129	458.85696	-662.64380	756.05597	468.46387	-664.16931	711.94257	462.29755	-665.22430	535.37122	405.58170	-657.41510	536.44147	280.95441	-603.03027	438.69711	421.87875	-603.71777	390.54764	425.96539	-663.26044	432.80676	411.37372	-654.01215	386.24976	414.60046	-597.28662	99.90939	366.91855	-603.73279	106.96310	289.96036	-531.77667	76.23431	330.22375	-729.14398	40.12671	385.62039	-777.22986	70.43226	313.32782	-742.99634	41.55416	273.28040	-482.33701	1071.09424	256.06128	-659.84717	1036.46179	167.71886	-602.95764	747.85156	98.66922	-620.35022	704.08075	98.86061	-662.98627	760.57391	93.32175	-672.09497	714.61792	93.24633	-665.09332	532.22430	111.70204	-699.42719	524.92853	248.04730	-603.62695	458.88437	103.50723	-565.30731	438.76172	100.64490	-565.80280	508.88165	111.58050	-534.52948	479.43619	108.70178	-333.21143	274.20233	172.82184	-370.18201	260.10339	249.54678	-277.32254	310.23990	230.05606	-371.19177	115.11398	244.78166	-403.17059	92.65666	205.53273	-347.49756	108.97489	142.85387
615	5.11667	-507.98734	1079.18945	369.64505	-684.46027	1032.78259	422.20294	-607.21356	748.28796	464.05316	-615.91589	704.71033	458.35464	-668.81610	756.08502	468.54858	-669.60883	711.88892	462.32224	-667.79315	535.48474	405.50574	-661.12061	536.52643	280.99155	-605.14258	439.30222	421.65363	-605.52966	391.18741	425.69513	-665.15405	432.94165	411.19745	-655.82587	386.48572	414.33215	-597.59967	100.43295	366.69824	-604.38672	107.58991	290.29413	-530.97125	77.16407	330.55548	-729.25146	40.11066	385.61160	-777.46222	70.10524	313.30096	-743.17993	41.44369	273.19904	-493.11954	1073.30444	255.96645	-670.38513	1038.50940	167.88698	-619.04205	750.94189	97.80657	-637.20734	707.10828	97.63156	-678.14441	764.28680	92.34011	-689.44147	719.35614	92.50418	-685.41064	536.19012	111.22424	-719.57037	529.74005	247.49573	-625.29797	460.98843	102.50888	-587.42010	440.48904	100.10094	-586.27319	510.36032	111.38547	-555.68774	480.13535	108.48758	-359.39462	269.49915	172.82863	-397.47290	256.14740	248.72287	-302.82483	301.60339	229.27209	-405.27808	111.46514	242.24799	-438.18695	91.30378	202.72198	-381.62143	105.58588	140.32417
